#!OML:ASF Y:\EmotionMaleHayes\Project 1\Capture day 1\Session 1\Male1.ASF
:FULLY-SPECIFIED
:DEGREES
398
root 18.5302 17.4407 -1.80506 190.854 37.169 191.108
lowerback 13.5013 10.8665 8.98714
upperback 3.38276 16.1655 -6.11002
thorax 0.557445 8.67107 -13.0538
lowerneck -12.4885 -13.1184 -7.98161
upperneck 26.2842 -18.3092 -1.51765
head 11.1409 -9.59479 -1.81043
rclavicle 3.61788e-014 4.29375e-014
rhumerus 24.0373 33.6352 -10.0375
rradius 72.6193
rwrist -11.6343
rhand -21.7214 -18.2643
rfingers 7.12502
rthumb 4.67779 -48.1927
lclavicle 3.61788e-014 4.29375e-014
lhumerus -90.496 -6.39362 45.1897
lradius 20.1485
lwrist -6.24929
lhand -21.402 -15.8249
lfingers 7.12502
lthumb 4.98621 14.0964
rfemur 21.1357 -7.22198 36.1019
rtibia 42.0051
rfoot -191.631 -188.79
rtoes 22.352
lfemur -39.7609 6.6901 -30.4095
ltibia 34.692
lfoot 14.93 -10.094
ltoes 14.2826
399
root 18.8735 17.3326 -1.81464 191.934 37.862 194.216
lowerback 14.0471 11.0476 10.4927
upperback 3.14526 16.6065 -5.45943
thorax 0.358519 8.84531 -13.2798
lowerneck -12.8352 -13.0187 -7.61244
upperneck 26.6467 -18.3033 -1.35043
head 11.3214 -9.5351 -1.85365
rclavicle -5.40694e-014 3.18055e-014
rhumerus 23.8876 32.8552 -13.2291
rradius 74.2243
rwrist -11.6698
rhand -21.7125 -17.9709
rfingers 7.12502
rthumb 4.68639 -47.8991
lclavicle -5.40694e-014 3.18055e-014
lhumerus -91.5661 -5.09752 45.5733
lradius 19.7272
lwrist -6.53105
lhand -20.4115 -15.96
lfingers 7.12502
lthumb 5.94257 13.9366
rfemur 22.1098 -6.90836 36.4015
rtibia 45.5061
rfoot -192.116 -191.213
rtoes 23.0057
lfemur -38.2029 5.02377 -26.6657
ltibia 35.3821
lfoot 14.1378 -8.78035
ltoes 15.3384
400
root 19.1903 17.2238 -1.83325 192.495 38.8755 195.806
lowerback 14.3958 11.2484 10.9073
upperback 2.88091 16.9323 -5.18292
thorax 0.0128553 8.94829 -13.3159
lowerneck -13.133 -14.3695 -7.18411
upperneck 26.8677 -17.3354 -1.39422
head 11.4116 -8.5259 -1.73692
rclavicle 4.05521e-014 -4.77083e-014
rhumerus 23.8093 32.3531 -16.3328
rradius 75.6792
rwrist -12.4065
rhand -21.9663 -17.6459
rfingers 7.12502
rthumb 4.44132 -47.5793
lclavicle 4.05521e-014 -4.77083e-014
lhumerus -92.3822 -3.6676 46.0761
lradius 19.1494
lwrist -7.21776
lhand -19.2876 -16.2469
lfingers 7.12502
lthumb 7.02758 13.6164
rfemur 22.8419 -6.20867 35.1249
rtibia 48.7607
rfoot -193.042 -193.552
rtoes 25.6875
lfemur -36.8183 3.3041 -24.7174
ltibia 35.8763
lfoot 14.0795 -7.96513
ltoes 14.9346
401
root 19.5036 17.1099 -1.8573 192.811 40.1361 196.82
lowerback 14.6646 11.5061 10.8097
upperback 2.61625 17.2602 -5.06569
thorax -0.387633 9.04901 -13.2515
lowerneck -13.1559 -14.1479 -7.10827
upperneck 26.7047 -17.2028 -0.936628
head 11.3882 -8.40817 -1.56502
rclavicle 8.26944e-014 -8.5875e-014
rhumerus 23.7589 32.0001 -20.0827
rradius 76.7367
rwrist -12.8853
rhand -21.5802 -18.1603
rfingers 7.12502
rthumb 4.81414 -48.0856
lclavicle 8.26944e-014 -8.5875e-014
lhumerus -92.9651 -2.1574 46.9703
lradius 18.618
lwrist -7.74343
lhand -18.177 -16.3731
lfingers 7.12502
lthumb 8.09949 13.4517
rfemur 23.5038 -5.31382 33.0836
rtibia 51.6231
rfoot -193.848 -195.721
rtoes 29.194
lfemur -35.4809 1.84459 -23.43
ltibia 36.6356
lfoot 14.4946 -7.47966
ltoes 15.0284
402
root 19.8306 16.9855 -1.88908 193.024 41.3451 197.778
lowerback 14.8558 11.6847 10.5938
upperback 2.36759 17.4624 -5.02336
thorax -0.778473 9.09202 -13.1925
lowerneck -13.2363 -13.9004 -6.30281
upperneck 26.4299 -17.0636 -1.01167
head 11.1986 -8.29395 -1.66408
rclavicle 3.18055e-014 0
rhumerus 23.438 32.0638 -24.5022
rradius 77.9987
rwrist -13.4785
rhand -20.9258 -17.9991
rfingers 7.12502
rthumb 5.44601 -47.9091
lclavicle 3.18055e-014 0
lhumerus -93.3227 -0.420444 47.3658
lradius 18.1565
lwrist -8.72831
lhand -17.7702 -16.3963
lfingers 7.12502
lthumb 8.49213 13.413
rfemur 24.0759 -4.7073 30.469
rtibia 54.0804
rfoot -194.223 -197.335
rtoes 31.3536
lfemur -33.9725 0.533732 -22.2596
ltibia 37.7061
lfoot 14.9777 -7.02568
ltoes 17.5051
403
root 20.1634 16.8539 -1.92446 193.424 42.4583 199.04
lowerback 14.953 11.766 10.4919
upperback 2.1693 17.5394 -4.82867
thorax -1.11996 9.07194 -12.9975
lowerneck -13.235 -13.6277 -5.62922
upperneck 25.9985 -16.8123 -1.23863
head 10.9345 -8.16792 -1.76798
rclavicle 9.46215e-014 -1.27222e-014
rhumerus 22.8974 32.6781 -28.9608
rradius 79.7107
rwrist -14.0026
rhand -20.539 -18.7269
rfingers 7.12502
rthumb 5.81944 -48.6269
lclavicle 9.46215e-014 -1.27222e-014
lhumerus -93.4279 1.75035 45.9495
lradius 17.3929
lwrist -11.7804
lhand -17.7241 -16.9279
lfingers 7.12502
lthumb 8.53658 12.8795
rfemur 24.6422 -3.97608 28.0826
rtibia 56.0906
rfoot -194.502 -198.658
rtoes 33.0904
lfemur -32.3525 -0.553023 -20.9734
ltibia 38.7253
lfoot 15.3445 -6.94983
ltoes 17.2652
404
root 20.4965 16.7154 -1.96068 194.09 43.6204 200.539
lowerback 15.0788 11.8191 10.8232
upperback 1.9847 17.6634 -4.7566
thorax -1.27742 9.10349 -13.1466
lowerneck -13.267 -13.4521 -5.73835
upperneck 25.5041 -16.7278 -0.726715
head 10.8163 -8.10274 -1.55133
rclavicle 6.83819e-014 -4.13472e-014
rhumerus 21.8815 33.4536 -33.96
rradius 81.3281
rwrist -14.2399
rhand -20.8136 -20.1698
rfingers 7.12502
rthumb 5.55434 -50.077
lclavicle 6.83819e-014 -4.13472e-014
lhumerus -93.0918 3.73782 45.329
lradius 16.9152
lwrist -13.9078
lhand -17.474 -17.491
lfingers 7.12502
lthumb 8.77795 12.3065
rfemur 24.9677 -2.99946 25.8511
rtibia 57.6631
rfoot -195.352 -199.574
rtoes 32.1178
lfemur -30.6455 -1.52933 -19.4553
ltibia 39.4083
lfoot 15.923 -6.63977
ltoes 32.6889
405
root 20.8324 16.5712 -1.99641 194.786 44.8075 201.768
lowerback 14.9657 11.8822 10.7337
upperback 1.80262 17.7059 -4.72572
thorax -1.44124 9.09062 -13.0702
lowerneck -13.5999 -13.2868 -6.21556
upperneck 25.1938 -16.7236 0.372388
head 10.9218 -8.02241 -1.13499
rclavicle 1.48691e-013 -2.38542e-014
rhumerus 20.4555 34.4818 -39.4221
rradius 82.7616
rwrist -14.2938
rhand -20.7424 -21.0175
rfingers 7.12502
rthumb 5.62307 -50.9229
lclavicle 1.48691e-013 -2.38542e-014
lhumerus -92.6841 5.45997 48.7645
lradius 17.5459
lwrist -11.7839
lhand -17.5972 -17.1172
lfingers 7.12502
lthumb 8.65908 12.6852
rfemur 24.9231 -1.94073 23.3041
rtibia 58.7548
rfoot -195.549 -199.599
rtoes 32.7457
lfemur -29.0465 -2.25827 -18.3549
ltibia 39.8311
lfoot 12.8408 -11.2472
ltoes 44.6689
406
root 21.1682 16.4232 -2.02499 195.565 45.7627 202.828
lowerback 14.5445 11.9918 9.70327
upperback 1.43909 17.5999 -4.40012
thorax -2.05879 8.92965 -12.1837
lowerneck -13.5158 -13.0093 -6.66175
upperneck 24.8024 -16.562 1.48707
head 10.9093 -7.86645 -0.655235
rclavicle 4.13472e-014 -3.18055e-015
rhumerus 18.1731 36.2529 -45.0867
rradius 84.3391
rwrist -14.3337
rhand -20.2343 -21.1482
rfingers 7.12502
rthumb 6.1136 -51.04
lclavicle 4.13472e-014 -3.18055e-015
lhumerus -92.2964 6.82256 54.2164
lradius 18.5164
lwrist -8.08123
lhand -18.3866 -16.4728
lfingers 7.12502
lthumb 7.8972 13.3597
rfemur 24.4876 -1.13878 20.56
rtibia 59.3657
rfoot -195.286 -199.032
rtoes 34.9517
lfemur -27.6957 -2.96794 -17.4825
ltibia 40.2055
lfoot 3.86883 -11.0538
ltoes 36.0377
407
root 21.4919 16.2658 -2.04317 196.312 46.498 203.617
lowerback 14.4714 12.0352 9.73933
upperback 0.956856 17.6393 -4.85486
thorax -2.36954 8.90426 -12.7389
lowerneck -12.9929 -12.9709 -6.67449
upperneck 23.8335 -16.9707 2.99476
head 10.6218 -7.92465 -0.141011
rclavicle -4.69132e-014 3.18055e-015
rhumerus 14.1752 37.0592 -52.3695
rradius 85.7975
rwrist -13.9797
rhand -19.9049 -19.9215
rfingers 7.12502
rthumb 6.4316 -49.8038
lclavicle -4.69132e-014 3.18055e-015
lhumerus -90.4008 7.08285 58.4493
lradius 19.2416
lwrist -5.47976
lhand -19.1235 -16.4651
lfingers 7.12502
lthumb 7.18594 13.3929
rfemur 23.7507 -0.663277 17.4876
rtibia 59.5128
rfoot -194.892 -198.18
rtoes 37.4974
lfemur -26.7815 -3.50873 -16.9204
ltibia 40.8476
lfoot -2.29189 -8.4912
ltoes 29.7699
408
root 21.8023 16.1026 -2.04326 196.509 47.2932 203.597
lowerback 14.4519 11.7916 8.94759
upperback 0.598266 17.1606 -5.16754
thorax -3.00453 8.59627 -12.7414
lowerneck -12.5569 -12.741 -6.8914
upperneck 22.6914 -16.8622 3.91943
head 10.2308 -7.84652 0.276477
rclavicle -5.40694e-014 -6.36111e-015
rhumerus 10.2649 38.4497 -59.5956
rradius 86.8821
rwrist -13.2774
rhand -19.2414 -20.8374
rfingers 7.12502
rthumb 7.07208 -50.6992
lclavicle -5.40694e-014 -6.36111e-015
lhumerus -88.8631 8.34218 61.0323
lradius 19.9625
lwrist -4.22287
lhand -19.8895 -16.8625
lfingers 7.12502
lthumb 6.44651 13.0193
rfemur 22.8291 -0.39072 13.6171
rtibia 59.2939
rfoot -194.884 -197.057
rtoes 36.8933
lfemur -26.4379 -3.97776 -17.0414
ltibia 42.2006
lfoot -5.68192 -8.51384
ltoes 33.8364
